<?xml version="1.0" encoding="UTF-8"?>
<svg id="Ebene_1" xmlns="http://www.w3.org/2000/svg" version="1.1" viewBox="0 0 800 800">
  <!-- Generator: Adobe Illustrator 29.8.1, SVG Export Plug-In . SVG Version: 2.1.1 Build 2)  -->
  <defs>
    <style>
      .st0 {
        fill: #fff;
      }
    </style>
  </defs>
  <path class="st0" d="M400,191.94c-112.9,0-206.45,91.94-206.45,206.45s91.94,206.45,206.45,206.45,206.45-93.55,206.45-206.45-93.55-206.45-206.45-206.45ZM400,530.65c-72.58,0-132.26-59.68-132.26-132.26s59.68-132.26,132.26-132.26,132.26,59.68,132.26,132.26-59.68,132.26-132.26,132.26Z"/>
  <circle class="st0" cx="614.52" cy="187.1" r="46.77"/>
  <path class="st0" d="M735.48,66.13C693.55,22.58,633.87,0,566.13,0H233.87C93.55,0,0,93.55,0,233.87v330.65C0,633.87,22.58,693.55,67.74,737.1c43.55,41.94,101.61,62.9,167.74,62.9h329.03c69.35,0,127.42-22.58,169.35-62.9,43.55-41.94,66.13-101.61,66.13-170.97V233.87c0-67.74-22.58-125.81-64.52-167.74ZM729.03,566.13c0,50-17.74,90.32-46.77,117.74-29.03,27.42-69.35,41.94-117.74,41.94H235.48c-48.39,0-88.71-14.52-117.74-41.94-29.03-29.03-43.55-69.35-43.55-119.35V233.87c0-48.39,14.52-88.71,43.55-117.74,27.42-27.42,69.35-41.94,117.74-41.94h332.26c48.39,0,88.71,14.52,117.74,43.55,27.42,29.03,43.55,69.35,43.55,116.13v332.26h0Z"/>
</svg>