<?xml version="1.0" encoding="UTF-8"?>
<svg id="Ebene_1" xmlns="http://www.w3.org/2000/svg" version="1.1" viewBox="0 0 800 800">
  <!-- Generator: Adobe Illustrator 29.8.1, SVG Export Plug-In . SVG Version: 2.1.1 Build 2)  -->
  <defs>
    <style>
      .st0 {
        fill: #fff;
      }
    </style>
  </defs>
  <path id="path869" class="st0" d="M-.49,399.99C-.49,179.49,179.01,0,399.51,0s399.99,179.49,399.99,399.99c0,88.76-28.49,172.5-82.29,242.79l-200.59-200.59c5.01-13.71,7.52-27.96,7.52-42.33,0-68.71-55.92-124.63-124.63-124.63s-124.63,55.92-124.63,124.63c0,14.37,2.51,28.62,7.52,42.33l-200.59,200.59C27.99,572.62-.5,488.75-.5,399.99h0Z"/>
  <path id="path871" class="st0" d="M326.17,494.43l73.33-114.34,73.33,114.21,198.75,198.75c-74.25,68.97-170.66,106.95-272.07,106.95s-197.82-37.98-272.07-106.95l198.75-198.61h-.02Z"/>
</svg>