<?xml version="1.0" encoding="UTF-8"?>
<svg id="Ebene_1" xmlns="http://www.w3.org/2000/svg" version="1.1" viewBox="0 0 800 800">
  <!-- Generator: Adobe Illustrator 29.8.1, SVG Export Plug-In . SVG Version: 2.1.1 Build 2)  -->
  <defs>
    <style>
      .st0, .st1 {
        fill: #fff;
      }

      .st1 {
        fill-rule: evenodd;
      }
    </style>
  </defs>
  <path class="st0" d="M682.18,116.26C607.3,41.33,507.74.05,401.67,0,183.08,0,5.21,177.82,5.12,396.4c-.08,69.57,18.17,137.92,52.93,198.18L1.79,800l210.21-55.12c57.92,31.58,123.13,48.23,189.49,48.26h.17c218.55,0,396.45-177.85,396.55-396.42.04-105.93-41.16-205.52-116.04-280.45h.01ZM401.66,726.19h-.12c-59.16-.03-117.16-15.92-167.75-45.94l-12.05-7.14-124.75,32.71,33.3-121.58-7.84-12.46c-33.01-52.52-50.48-113.31-50.39-175.35.06-181.66,147.92-329.46,329.72-329.46,87.46-.21,171.37,34.59,233.02,96.62,61.99,61.7,96.72,145.64,96.45,233.1h0c-.07,181.68-147.92,329.49-329.59,329.49h0Z"/>
  <path class="st1" d="M302.55,230.68c-7.43-16.5-15.24-16.83-22.3-17.12l-18.99-.23c-6.61,0-17.34,2.48-26.42,12.4s-34.68,33.88-34.68,82.63,35.51,95.85,40.45,102.47c4.95,6.62,68.54,109.84,169.26,149.56,83.69,33.01,100.72,26.44,118.9,24.79,18.18-1.65,58.62-23.97,66.87-47.1,8.25-23.14,8.26-42.96,5.78-47.1-2.47-4.14-9.08-6.61-19-11.57-9.92-4.96-58.62-28.93-67.7-32.23s-15.68-4.95-22.3,4.96c-6.61,9.92-25.58,32.22-31.36,38.84s-11.56,7.44-21.47,2.49c-9.92-4.95-41.82-15.42-79.68-49.17-29.45-26.26-49.34-58.7-55.12-68.61-5.79-9.91-.61-15.28,4.35-20.22,4.45-4.44,9.91-11.57,14.87-17.35s6.6-9.92,9.9-16.52,1.65-12.4-.82-17.35-21.73-53.95-30.54-73.55"/>
</svg>